<svg xmlns="http://www.w3.org/2000/svg" width="120" height="25" viewBox="0 0 120 25">
    <g fill="var(--isp-logo-color, #344A5E)" fill-rule="evenodd">
        <path d="M27.778 14.388h3.802V2.083h-3.802zM42.879 10.051c0 1.382-.446 2.459-1.344 3.235-.879.75-2.07 1.123-3.577 1.123-1.648 0-3.19-.457-4.625-1.37l1.325-2.938c1.058.826 2.029 1.24 2.915 1.24.446 0 .796-.083 1.043-.255.22-.152.327-.342.327-.57 0-.328-.171-.605-.513-.834-.343-.232-.994-.51-1.95-.833-.87-.293-1.514-.682-1.929-1.165-.476-.556-.715-1.293-.715-2.215 0-1.26.434-2.26 1.305-3.003.845-.72 1.952-1.077 3.315-1.077 1.366 0 2.683.358 3.954 1.077L41.23 5.39c-.78-.631-1.575-.948-2.382-.948-.323 0-.59.065-.795.194-.21.134-.312.301-.312.506 0 .237.13.434.384.598.282.183.917.469 1.914.86.997.388 1.72.86 2.17 1.41.449.547.67 1.232.67 2.042M30.971 20.756c0 .422-.156.78-.464 1.077-.312.297-.69.45-1.135.45-.646 0-1.18-.305-1.594-.906l.647-.53c.263.43.582.644.947.644a.705.705 0 0 0 .507-.187.631.631 0 0 0 .202-.479c0-.18-.061-.32-.183-.42-.118-.098-.408-.246-.86-.444-.343-.153-.59-.309-.743-.469-.205-.217-.304-.487-.304-.817 0-.362.14-.674.426-.933.278-.255.598-.38.955-.38.526 0 .933.246 1.226.749l-.578.46c-.19-.281-.407-.422-.648-.422a.586.586 0 0 0-.387.145c-.11.099-.168.205-.168.33a.45.45 0 0 0 .152.34c.122.106.362.232.716.38.449.187.772.384.97.594.21.22.316.494.316.818M35.922 17.361h-.89v2.576c0 .913-.37 1.374-1.1 1.374-.735 0-1.1-.465-1.1-1.386v-2.564h-.888v2.614c0 .666.176 1.195.53 1.583.353.388.84.583 1.458.583A2.2 2.2 0 0 0 35 21.89v.539c0 1.088-.267 1.636-1.12 1.636-.452 0-.635-.118-.89-.354l-.636.556c.42.392.785.586 1.436.586.783 0 1.198-.213 1.56-.636.361-.422.544-1.08.544-1.97v-1.721l-.009.018c.023-.15.036-.306.036-.475v-2.709M40.003 20.756c0 .422-.156.78-.469 1.077a1.57 1.57 0 0 1-1.13.45c-.65 0-1.183-.305-1.598-.906l.647-.53c.266.43.582.644.952.644a.706.706 0 0 0 .505-.187.631.631 0 0 0 .202-.479c0-.18-.06-.32-.182-.42-.119-.098-.408-.246-.86-.444-.344-.153-.59-.309-.742-.469a1.137 1.137 0 0 1-.31-.817c0-.362.146-.674.431-.933a1.36 1.36 0 0 1 .956-.38c.52 0 .928.246 1.221.749l-.575.46c-.19-.281-.407-.422-.646-.422a.58.58 0 0 0-.389.145c-.11.099-.167.205-.167.33 0 .134.05.248.152.34.122.106.361.232.716.38.449.187.772.384.97.594.21.22.316.494.316.818M42.455 18.224h-.742v3.786h-.891v-3.786h-.544v-.83h.544v-2.116h.89v2.116h.743v.83M46.72 19.295c-.057-.35-.201-.633-.441-.84-.236-.218-.537-.325-.895-.325a1.43 1.43 0 0 0-1.42 1.165h2.756zm.876 1.724a2.37 2.37 0 0 1-.89.91 2.4 2.4 0 0 1-1.257.353c-.72 0-1.294-.228-1.735-.681-.442-.453-.658-1.05-.658-1.785 0-.685.205-1.26.616-1.728.438-.483.997-.727 1.682-.727.7 0 1.256.237 1.664.708.384.453.578 1.031.578 1.74v.152h-3.631c0 .452.133.825.403 1.11.27.286.617.431 1.047.431.643 0 1.13-.293 1.461-.875l.72.392zM55.039 22.119h-.898v-2.737c0-.822-.274-1.233-.826-1.233-.697 0-1.043.503-1.043 1.503v2.467h-.883v-2.737c0-.822-.29-1.233-.86-1.233-.685 0-1.031.54-1.031 1.618v2.352h-.887v-4.616h.887v.639c.32-.533.753-.792 1.301-.78.3.004.571.09.815.254.213.153.369.34.468.564.312-.54.78-.814 1.404-.819 1.035-.01 1.553.621 1.553 1.896v2.862M49.061 7.465a1.378 1.378 0 1 1 0-2.76 1.38 1.38 0 0 1 0 2.76zm4.205-4.201c-.844-.784-2.081-1.18-3.714-1.18h-5.108v12.304h3.803v-4.145h1.617c1.477 0 2.607-.346 3.395-1.039.784-.692 1.18-1.674 1.18-2.941 0-1.275-.392-2.277-1.173-3zM21.767 5.173c3.73 5.427 2.352 12.86-3.075 16.594-4.575 3.143-10.578 2.658-14.584-.823-.035.029-.065.062-.103.087a1.587 1.587 0 0 1-2.215-.41 1.59 1.59 0 0 1 .224-2.06C-1.61 13.147-.215 5.799 5.169 2.098 9.556-.915 15.25-.596 19.243 2.5a1.593 1.593 0 0 1 2.448.212c.45.656.34 1.526-.22 2.054.1.134.2.268.296.408zM2.397 18.932a1.046 1.046 0 0 0-.27 1.45 1.04 1.04 0 0 0 1.45.267 1.042 1.042 0 1 0-1.18-1.717zm10.881-7.224a3.397 3.397 0 1 0 3.848 5.596 3.397 3.397 0 0 0-3.848-5.596zm7.219-7.194a1.04 1.04 0 1 0 0 0zm-13.22 12.57a2.375 2.375 0 0 0-.61 3.3 2.375 2.375 0 0 0 3.3.608 2.375 2.375 0 0 0 .61-3.3 2.375 2.375 0 0 0-3.3-.608zM18.39 6.668a2.373 2.373 0 1 0 2.687 3.912 2.373 2.373 0 0 0-2.687-3.912zM71.149 2.933h1.516v6.738H71.15V6.813H68.6V9.67h-1.516V2.933H68.6V5.51h2.548V2.933zm4.345 3.364c0 .33.041.629.122.895.081.265.198.494.35.685.152.191.339.339.559.442.22.104.473.156.758.156.279 0 .53-.052.754-.156.223-.103.411-.25.564-.442.152-.191.269-.42.35-.685.08-.266.121-.564.121-.895 0-.33-.04-.63-.121-.9a2.038 2.038 0 0 0-.35-.69 1.538 1.538 0 0 0-.564-.442 1.77 1.77 0 0 0-.754-.155c-.285 0-.538.053-.758.16-.22.107-.407.256-.559.447a2.038 2.038 0 0 0-.35.69 3.075 3.075 0 0 0-.122.89zm5.144 0c0 .577-.086 1.084-.258 1.522a3.129 3.129 0 0 1-.705 1.098 2.894 2.894 0 0 1-1.065.666c-.411.15-.854.224-1.327.224-.46 0-.894-.075-1.302-.224a2.996 2.996 0 0 1-1.07-.666 3.114 3.114 0 0 1-.72-1.098c-.174-.438-.262-.945-.262-1.522 0-.577.09-1.084.272-1.521.182-.438.427-.806.734-1.104a3.019 3.019 0 0 1 1.07-.67c.405-.15.831-.224 1.278-.224.46 0 .895.074 1.303.223.408.15.765.373 1.07.671.304.298.544.666.719 1.104.175.437.263.944.263 1.521zm3.1 2.217c.215 0 .391-.018.53-.054a.977.977 0 0 0 .336-.145.488.488 0 0 0 .175-.22.78.78 0 0 0 .049-.281c0-.22-.104-.404-.311-.55-.208-.145-.564-.302-1.07-.47a8.064 8.064 0 0 1-.66-.268c-.221-.1-.419-.227-.594-.38a1.814 1.814 0 0 1-.428-.554A1.736 1.736 0 0 1 81.6 4.8c0-.311.058-.591.175-.841.117-.25.282-.462.496-.637.214-.175.473-.31.778-.403a3.491 3.491 0 0 1 1.03-.141c.454 0 .846.048 1.177.146.33.097.602.204.816.32l-.437 1.196a4.144 4.144 0 0 0-.627-.257 2.715 2.715 0 0 0-.832-.112c-.363 0-.623.05-.782.15-.159.101-.238.255-.238.462 0 .123.029.227.087.311a.85.85 0 0 0 .248.229c.107.068.23.13.37.185.139.055.293.111.461.17.35.13.655.257.914.384.26.126.475.274.647.442.171.169.3.366.384.593.084.227.126.503.126.827 0 .628-.22 1.116-.661 1.463-.44.347-1.105.52-1.993.52-.298 0-.567-.018-.807-.054a5.208 5.208 0 0 1-.637-.13 3.653 3.653 0 0 1-.812-.331l.428-1.206c.201.11.449.21.744.297s.656.13 1.084.13zm8.624-5.58v1.292h-2.031v5.445h-1.517V4.226h-2.032V2.933h5.58zm.973 0h1.516V9.67h-1.516V2.933zm7.593 6.737a33.903 33.903 0 0 0-1.41-2.285 23.219 23.219 0 0 0-1.614-2.13v4.415h-1.497V2.933h1.235c.214.214.45.477.71.788.259.31.523.643.792.996.269.354.536.72.802 1.099.266.38.515.744.748 1.094V2.933h1.507v6.738h-1.273zm6.115-5.571c-.706 0-1.217.196-1.531.588-.315.392-.472.929-.472 1.61 0 .33.04.63.117.899.078.269.194.5.35.695.156.194.35.345.583.452.234.107.506.16.817.16.168 0 .313-.003.433-.01.12-.006.225-.019.316-.038V6.113h1.516v3.334c-.181.072-.473.148-.875.229-.402.08-.897.121-1.487.121-.506 0-.964-.078-1.376-.233a2.876 2.876 0 0 1-1.055-.68 3.038 3.038 0 0 1-.676-1.1 4.315 4.315 0 0 1-.238-1.487c0-.564.088-1.063.263-1.497.175-.434.415-.802.72-1.103.304-.302.662-.53 1.074-.686.411-.155.85-.233 1.317-.233a5.328 5.328 0 0 1 1.521.209 3.068 3.068 0 0 1 .715.306l-.438 1.215a3.954 3.954 0 0 0-.714-.286 3.04 3.04 0 0 0-.88-.122zm-38.12 16.844c.213 0 .39-.017.53-.053a.977.977 0 0 0 .334-.146.488.488 0 0 0 .175-.219.78.78 0 0 0 .05-.282c0-.22-.105-.403-.312-.549-.207-.146-.564-.303-1.07-.471a8.064 8.064 0 0 1-.66-.268c-.22-.1-.419-.227-.594-.379a1.814 1.814 0 0 1-.427-.554 1.736 1.736 0 0 1-.166-.792c0-.312.059-.592.175-.841.117-.25.282-.462.496-.637.214-.175.473-.31.778-.404a3.491 3.491 0 0 1 1.03-.14c.454 0 .846.048 1.177.145.33.097.603.204.817.321l-.438 1.196a4.144 4.144 0 0 0-.627-.258 2.715 2.715 0 0 0-.831-.112c-.363 0-.624.05-.783.151-.159.1-.238.254-.238.462 0 .123.03.227.087.311a.85.85 0 0 0 .248.228c.107.069.23.13.37.185.14.055.293.112.462.17.35.13.654.258.913.384.26.127.475.274.647.443.172.168.3.366.384.593.084.227.126.502.126.826 0 .629-.22 1.117-.66 1.463-.441.347-1.106.52-1.994.52a5.208 5.208 0 0 1-1.444-.185 3.653 3.653 0 0 1-.811-.33l.427-1.205c.201.11.45.209.744.296.295.088.656.131 1.084.131zm5.094-2.216c0 .33.04.628.121.894.081.266.198.494.35.686.153.19.339.338.56.442.22.104.472.156.758.156.278 0 .53-.052.753-.156.224-.104.412-.251.564-.442.152-.192.269-.42.35-.686.08-.266.121-.564.121-.894 0-.33-.04-.63-.121-.9a2.038 2.038 0 0 0-.35-.69 1.538 1.538 0 0 0-.564-.442 1.77 1.77 0 0 0-.753-.156c-.286 0-.538.054-.759.16-.22.108-.406.257-.559.448a2.038 2.038 0 0 0-.35.69 3.075 3.075 0 0 0-.121.89zm5.143 0c0 .577-.086 1.084-.258 1.521a3.129 3.129 0 0 1-.705 1.099 2.894 2.894 0 0 1-1.064.666c-.412.149-.854.224-1.327.224-.46 0-.895-.075-1.303-.224a2.996 2.996 0 0 1-1.07-.666 3.114 3.114 0 0 1-.72-1.099c-.174-.437-.262-.944-.262-1.521s.091-1.084.273-1.522c.181-.437.426-.805.734-1.103a3.019 3.019 0 0 1 1.07-.671c.404-.15.83-.224 1.278-.224.46 0 .894.075 1.302.224.409.149.765.373 1.07.67.304.299.544.667.72 1.104.174.438.262.945.262 1.522zm1.264 3.373v-6.737h4.51v1.273H81.94v1.41h2.664v1.274H81.94v2.78h-1.516zm10.782-6.737v1.293h-2.032V22.1h-1.517v-5.444h-2.032v-1.293h5.58zm5.745.72c.078.265.164.565.258.899.094.333.194.679.301 1.035.107.357.216.713.326 1.07.11.356.217.687.32.991a39.42 39.42 0 0 0 .506-2.285c.078-.414.154-.828.229-1.24.075-.41.144-.808.209-1.19h1.575a69.834 69.834 0 0 1-.783 3.432 49.867 49.867 0 0 1-.957 3.305h-1.39a44.56 44.56 0 0 1-.662-1.959 215.81 215.81 0 0 1-.632-2.056c-.207.687-.414 1.373-.622 2.056a37.5 37.5 0 0 1-.651 1.96h-1.39a49.867 49.867 0 0 1-.958-3.306 69.834 69.834 0 0 1-.783-3.432h1.643c.065.382.136.78.214 1.19.078.412.159.826.243 1.24.084.415.17.817.258 1.206.087.389.176.749.267 1.08.117-.318.23-.655.34-1.012.11-.356.218-.713.321-1.07.104-.356.2-.7.287-1.03.088-.33.167-.625.238-.885h1.293zm8.818 6.017c-.07-.233-.15-.473-.238-.72a66.717 66.717 0 0 1-.257-.738h-2.625c-.085.246-.17.493-.258.739s-.167.486-.238.72h-1.575c.253-.727.492-1.397.72-2.013a62.24 62.24 0 0 1 1.308-3.291c.21-.49.428-.967.655-1.434h1.449a54.103 54.103 0 0 1 1.298 2.985c.217.544.439 1.124.666 1.74.226.616.466 1.286.72 2.012h-1.625zm-1.818-5.21c-.032.097-.08.23-.145.398a320.523 320.523 0 0 0-.501 1.312c-.1.266-.203.545-.306.837h1.915c-.104-.292-.204-.57-.302-.837-.097-.265-.19-.508-.277-.729a58.86 58.86 0 0 1-.228-.583 33.924 33.924 0 0 0-.156-.399zm6.29-1.605c1.012 0 1.786.18 2.324.54.538.36.807.918.807 1.677 0 .473-.108.857-.325 1.152-.218.295-.53.526-.939.695.136.169.279.361.428.578.15.218.297.444.442.681.146.237.287.483.423.739.137.256.263.507.38.753h-1.702l-.374-.67a16.129 16.129 0 0 0-.783-1.27 6.583 6.583 0 0 0-.389-.52h-.748v2.46h-1.517v-6.64c.33-.065.673-.11 1.026-.136.353-.026.669-.039.948-.039zm.088 1.293c-.11 0-.209.003-.296.01-.088.006-.17.013-.248.02v1.827h.428c.57 0 .978-.071 1.225-.214.246-.142.369-.385.369-.729 0-.33-.125-.565-.374-.705-.25-.14-.618-.209-1.104-.209zm4.424 5.522v-6.737h4.55v1.273h-3.034v1.323h2.694v1.244h-2.694v1.624h3.257V22.1h-4.773z"/>
    </g>
</svg>
