<svg xmlns="http://www.w3.org/2000/svg" id="Layer_1" data-name="Layer 1" viewBox="0 0 93.91 42.7"><defs><style>.cls-1{fill:#0279c0;}.cls-2{fill:#737476;}.cls-3{fill:#fff;}</style></defs><g id="logo"><path d="M47 4h7v21h-7zM71.8 18a6.5 6.5 0 0 1-2.2 5.4 8.8 8.8 0 0 1-6 1.8 13.8 13.8 0 0 1-7.5-2.3l2.3-5a7.6 7.6 0 0 0 4.8 2 3 3 0 0 0 1.8-.3 1 1 0 0 0 .5-1 2 2 0 0 0-.8-1.3 18 18 0 0 0-3.2-1.4 7.6 7.6 0 0 1-3.2-2 5.2 5.2 0 0 1-1-3.5 6 6 0 0 1 2-5A8 8 0 0 1 64.5 4 13 13 0 0 1 71 5.6l-2 4.8a6.5 6.5 0 0 0-3.8-1.6A2.5 2.5 0 0 0 64 9a1 1 0 0 0-.6 1 1.2 1.2 0 0 0 .6 1 18.4 18.4 0 0 0 3.2 1.3 9 9 0 0 1 3.6 2.3 6.5 6.5 0 0 1 1 3.5z" class="cls-1"/><path d="M52 35.6a2.5 2.5 0 0 1-.7 1.8 2.7 2.7 0 0 1-2 .8 3.2 3.2 0 0 1-2.6-1.5l1-1a2 2 0 0 0 1.7 1.2 1.6 1.6 0 0 0 1-.4 1 1 0 0 0 .2-.8 1 1 0 0 0-.3-.7 8.4 8.4 0 0 0-1.5-.7 5 5 0 0 1-1.3-.8A2.2 2.2 0 0 1 47 32a2 2 0 0 1 .7-1.5 2.5 2.5 0 0 1 1.6-.6 2.3 2.3 0 0 1 2 1.2l-1 .8a1.3 1.3 0 0 0-1-.7 2 2 0 0 0-.7.2.7.7 0 0 0-.3.6 1 1 0 0 0 .3.7 3.3 3.3 0 0 0 1.2.6 4.4 4.4 0 0 1 1.6 1 1.3 1.3 0 0 1 .7 1.3zM60.5 30H59v4.4c0 1.5-.6 2.3-1.6 2.3-1.2 0-2-.8-2-2.3V30H54v4.4a4 4 0 0 0 1 2.7 3 3 0 0 0 2.4 1 3.8 3.8 0 0 0 1.6-.3v1c0 1.7-.2 2.7-1.7 2.7a1.8 1.8 0 0 1-1.5-.6l-1 1a3 3 0 0 0 2.3 1 2.7 2.7 0 0 0 2.5-1.2 5 5 0 0 0 1-3.3v-3-.7zM67.6 35.6a2.5 2.5 0 0 1-.8 1.8 2.7 2.7 0 0 1-2 .8 3.2 3.2 0 0 1-2.6-1.5l1-1A2 2 0 0 0 65 37a1.6 1.6 0 0 0 .8-.4 1 1 0 0 0 .3-.8 1 1 0 0 0-.2-.7 8.4 8.4 0 0 0-1.5-.7 5 5 0 0 1-1.3-.8 2.2 2.2 0 0 1-.5-1.4 2 2 0 0 1 .7-1.5 2.5 2.5 0 0 1 1.6-.6 2.3 2.3 0 0 1 2 1.2l-1 .8a1.3 1.3 0 0 0-1-.7 1.4 1.4 0 0 0-.7.2.7.7 0 0 0-.2.6 1 1 0 0 0 .3.7 3.3 3.3 0 0 0 1.3.6 4.4 4.4 0 0 1 1.6 1 1.3 1.3 0 0 1 .6 1.3zM72.8 31.4h-1.3V38H70v-6.6h-1V30h1v-3.5h1.5V30h1.3v1.4zM81.7 36a3.6 3.6 0 0 1-1.5 1.5 4.2 4.2 0 0 1-2 .6 3.7 3.7 0 0 1-3-1 4.4 4.4 0 0 1-1-3 4 4 0 0 1 1-3 3.7 3.7 0 0 1 2.8-1.2 3.5 3.5 0 0 1 2.8 1.2 4 4 0 0 1 1 3v.2h-6.2a2.5 2.5 0 0 0 .7 2 2.3 2.3 0 0 0 1.8.6 2.8 2.8 0 0 0 2.6-1.5zm-1.5-3a2 2 0 0 0-.7-1.3 2 2 0 0 0-1.5-.5 2.5 2.5 0 0 0-1.5.5 2.6 2.6 0 0 0-1 1.4zM94 38h-1.6v-4.7c0-1.4-.5-2-1.4-2-1.2 0-1.8.8-1.8 2.4V38h-1.5v-4.7q0-2-1.5-2c-1.2 0-1.7.8-1.7 2.6v4H83v-8h1.5v1a2.4 2.4 0 0 1 2.2-1.2 3.3 3.3 0 0 1 1.4.4 2.5 2.5 0 0 1 1 1 2.6 2.6 0 0 1 2.3-1.4c1.8 0 2.6 1 2.6 3.2z" class="cls-2"/><path d="M89 6c-1.4-1.3-3.5-2-6.3-2H74v21h6v-7.2h3.2A8.6 8.6 0 0 0 89 16a6.4 6.4 0 0 0 2-5 7 7 0 0 0-2-5zm-7.5 7.5A2.5 2.5 0 1 1 84 11a2.5 2.5 0 0 1-2.5 2.5z" class="cls-1"/></g><path d="M37.4 9L37 8a2.6 2.6 0 0 0 .3-3.5 2.7 2.7 0 0 0-3.8-.7l-.4.3A20.5 20.5 0 0 0 3.6 32a2.6 2.6 0 0 0-.4 3.4 2.7 2.7 0 0 0 4 .7A20.5 20.5 0 0 0 37.5 9z" class="cls-1"/><path d="M4.2 32.3a2 2 0 0 0-.5 2.7 2 2 0 0 0 1.6.8 2.3 2.3 0 0 0 1-.3 2 2 0 0 0-2-3.2z" class="cls-3"/><circle cx="25.8" cy="26" r="6" class="cls-3" transform="rotate(-34.9 25.49 25.89)"/><path d="M35 8a2.3 2.3 0 0 0 1-.2 2 2 0 0 0 .6-2.7 2 2 0 0 0-2.7-.4 2 2 0 0 0-.6 2.7A2 2 0 0 0 35 8z" class="cls-3"/><circle cx="14.5" cy="33" r="4" class="cls-3" transform="rotate(-34.5 14.5 32.97)"/><circle cx="33.3" cy="15.1" r="4.1" class="cls-3" transform="rotate(-34.5 33.32 15.11)"/></svg>